<?xml version="1.0" standalone="no"?>
<!DOCTYPE svg PUBLIC "-//W3C//DTD SVG 20010904//EN"
 "http://www.w3.org/TR/2001/REC-SVG-20010904/DTD/svg10.dtd">
<svg version="1.0" xmlns="http://www.w3.org/2000/svg"
 width="237.000000pt" height="237.000000pt" viewBox="0 0 237.000000 237.000000"
 preserveAspectRatio="xMidYMid meet">
<metadata>
Created by potrace 1.14, written by Peter Selinger 2001-2017
</metadata>
<g transform="translate(0.000000,237.000000) scale(0.100000,-0.100000)"
fill="#000000" stroke="none">
<path d="M155 1275 c-44 -43 -23 -94 49 -118 48 -16 66 -39 50 -64 -13 -22
-65 -28 -95 -13 -13 7 -25 8 -30 3 -15 -15 17 -35 65 -40 38 -5 48 -2 70 20
50 50 23 115 -55 132 -37 8 -53 36 -35 60 11 15 22 17 60 12 48 -7 61 4 27 23
-34 18 -80 12 -106 -15z"/>
<path d="M1535 1275 c-14 -13 -25 -29 -25 -35 0 -18 25 -11 38 11 10 15 21 19
50 17 32 -3 37 -7 40 -31 3 -24 -2 -30 -27 -40 -37 -14 -41 -37 -6 -37 35 0
51 -34 30 -66 -20 -30 -68 -33 -92 -4 -28 32 -47 26 -28 -10 28 -54 128 -50
154 6 16 36 14 51 -10 75 -19 19 -19 22 -5 38 60 66 -56 140 -119 76z"/>
<path d="M1768 1237 c-26 -35 -50 -75 -53 -90 -15 -56 29 -107 91 -107 33 0
84 51 84 84 0 38 -41 79 -78 79 -35 0 -40 8 -17 27 9 7 25 26 36 42 20 27 20
28 2 28 -12 0 -37 -24 -65 -63z m81 -88 c13 -24 13 -29 -2 -53 -13 -20 -26
-26 -52 -26 -52 0 -74 53 -38 92 25 27 73 20 92 -13z"/>
<path d="M1950 1272 c-91 -92 -6 -279 101 -222 65 35 65 205 0 240 -35 18 -71
11 -101 -18z m107 -32 c7 -14 13 -45 13 -70 0 -63 -18 -94 -56 -98 -47 -5 -67
25 -67 98 0 44 4 65 18 80 26 29 75 23 92 -10z"/>
<path d="M2146 1285 c-48 -49 -15 -114 54 -105 22 2 40 30 40 60 0 50 -60 78
-94 45z m71 -31 c9 -24 -10 -49 -38 -49 -24 0 -36 23 -25 51 7 19 55 18 63 -2z"/>
<path d="M367 1219 c-31 -18 -48 -71 -36 -112 16 -58 77 -85 130 -57 34 19 21
30 -26 23 -49 -6 -75 7 -75 38 0 15 10 19 63 21 l62 3 -2 30 c-4 53 -67 82
-116 54z m81 -31 c22 -22 13 -28 -38 -28 -27 0 -50 4 -50 8 0 29 65 43 88 20z"/>
<path d="M530 1135 c0 -78 3 -95 15 -95 12 0 15 14 15 64 0 71 14 96 56 96 15
0 24 6 24 15 0 20 -44 20 -61 -1 -11 -14 -13 -14 -21 0 -20 35 -28 12 -28 -79z"/>
<path d="M680 1135 c0 -78 3 -95 15 -95 12 0 15 14 15 64 0 71 14 96 56 96 15
0 24 6 24 15 0 20 -44 20 -61 -1 -11 -14 -13 -14 -21 0 -20 35 -28 12 -28 -79z"/>
<path d="M853 1220 c-38 -15 -26 -28 25 -27 41 2 47 -1 50 -19 3 -18 -4 -22
-37 -28 -49 -7 -73 -30 -69 -65 4 -37 49 -51 89 -29 24 14 29 15 29 3 0 -8 5
-15 10 -15 6 0 10 33 10 78 0 64 -4 82 -18 95 -20 18 -54 21 -89 7z m75 -122
c-2 -19 -10 -24 -40 -26 -32 -3 -38 0 -38 17 0 22 12 29 53 30 24 1 28 -3 25
-21z"/>
<path d="M1020 1135 c0 -78 3 -95 15 -95 12 0 15 14 15 69 0 77 11 94 57 89
28 -3 28 -4 31 -80 2 -60 6 -78 17 -78 24 0 21 151 -3 173 -22 20 -63 22 -80
5 -9 -9 -15 -9 -24 0 -24 24 -28 11 -28 -83z"/>
<path d="M1253 1215 c-69 -48 -35 -175 46 -175 52 0 91 41 91 95 0 75 -79 121
-137 80z m97 -34 c5 -11 10 -32 10 -46 0 -44 -17 -65 -53 -65 -18 0 -38 5 -45
12 -16 16 -16 90 0 106 20 20 76 15 88 -7z"/>
</g>
</svg>
